<svg width="100" height="100" viewBox="0 0 100 100" xmlns="http://www.w3.org/2000/svg">
  <defs>
    <linearGradient id="bitcoinGradient" x1="0%" y1="0%" x2="100%" y2="100%">
      <stop offset="0%" stop-color="#F7931A" />
      <stop offset="100%" stop-color="#FF9900" />
    </linearGradient>
  </defs>
  <circle cx="50" cy="50" r="45" fill="url(#bitcoinGradient)" />
  <path d="M65.5,38.5 C64.5,32.8 59.4,31 53.1,30.6 L53.1,21 L46.9,21 L46.9,30.3 C45.3,30.3 43.7,30.3 42.1,30.4 L42.1,21 L35.9,21 L35.9,30.6 C34.6,30.7 33.3,30.7 32,30.8 L32,30.7 L23,30.7 L23,37.4 C23,37.4 27.5,37.3 27.4,37.4 C30.1,37.4 30.8,39 31.1,40.4 L31.1,51.6 L31.8,51.6 L31.1,66.6 C30.9,67.5 30.4,68.9 28.5,68.9 C28.6,69 24.1,68.9 24.1,68.9 L23,76.4 L31.5,76.4 C33,76.4 34.5,76.4 35.9,76.4 L35.9,86.1 L42.1,86.1 L42.1,76.5 C43.8,76.5 45.4,76.5 46.9,76.5 L46.9,86.1 L53.1,86.1 L53.1,76.4 C61.2,75.8 67.1,73.6 68.5,66 C69.6,59.8 66.9,56.3 62.1,54.7 C65.2,52.7 67,49.7 65.5,38.5 Z M57.9,64.1 C57.9,70.5 46.9,70.1 42.9,70.1 L42.9,58.1 C46.9,58.1 57.9,57.4 57.9,64.1 Z M54.9,46.7 C54.9,52.6 45.7,52.1 42.3,52.1 L42.3,41.3 C45.7,41.3 54.9,40.5 54.9,46.7 Z" fill="white" />
</svg>